<svg id="svg" version="1.1" width="400" height="400" viewBox="0 0 400 400" xmlns="http://www.w3.org/2000/svg" xmlns:xlink="http://www.w3.org/1999/xlink" ><g id="svgg"><path id="path0" d="M181.453 33.872 C 178.205 34.019,177.811 34.127,176.783 35.155 C 175.360 36.578,171.796 37.600,168.253 37.600 C 165.724 37.600,165.481 37.681,164.280 38.931 C 162.499 40.783,161.169 41.524,159.356 41.673 C 157.993 41.784,157.753 41.960,157.422 43.084 C 157.126 44.089,156.636 44.544,155.175 45.173 C 153.897 45.722,153.156 46.340,152.831 47.126 C 152.562 47.773,151.797 48.521,151.077 48.838 C 150.190 49.228,149.665 49.827,149.356 50.800 C 149.041 51.794,148.463 52.439,147.363 53.023 C 146.033 53.730,145.771 54.097,145.511 55.622 C 145.344 56.598,145.043 57.452,144.842 57.519 C 142.975 58.142,141.940 60.109,141.575 63.730 C 141.191 67.537,140.912 68.065,138.558 69.444 C 137.818 69.877,137.800 71.922,137.800 156.244 L 137.800 242.600 141.600 242.717 C 143.690 242.782,145.805 242.733,146.300 242.610 L 147.200 242.385 147.200 159.090 C 147.200 106.268,147.342 75.298,147.589 74.437 C 147.983 73.064,149.218 71.600,149.983 71.600 C 150.231 71.600,150.412 70.425,150.430 68.700 C 150.464 65.479,151.105 63.223,152.127 62.727 C 152.497 62.547,153.115 62.247,153.500 62.060 C 153.885 61.872,154.252 61.197,154.316 60.560 C 154.511 58.622,156.213 55.600,157.110 55.600 C 157.677 55.600,159.278 54.097,159.776 53.097 C 160.333 51.980,163.391 50.410,165.020 50.404 C 166.049 50.401,166.318 50.181,166.745 49.000 C 167.506 46.898,168.305 46.662,175.200 46.500 C 178.610 46.420,181.760 46.179,182.200 45.964 C 183.102 45.524,202.525 45.729,213.458 46.294 C 220.720 46.669,222.513 47.277,223.386 49.657 C 223.539 50.074,224.313 50.415,225.513 50.592 C 227.669 50.911,228.634 51.628,229.413 53.492 C 229.764 54.332,230.237 54.800,230.735 54.800 C 231.894 54.800,233.116 56.025,233.497 57.567 C 233.682 58.319,234.184 59.129,234.611 59.367 C 240.439 62.613,238.066 73.194,231.400 73.683 C 229.996 73.786,229.755 73.952,229.433 75.045 C 229.052 76.337,227.640 77.303,225.411 77.797 C 224.757 77.941,223.529 78.810,222.683 79.726 C 221.632 80.865,220.615 81.521,219.472 81.796 C 218.087 82.131,217.779 82.381,217.677 83.258 C 217.522 84.605,216.530 85.496,215.000 85.667 C 213.981 85.780,213.782 85.990,213.678 87.058 C 213.529 88.586,212.603 89.488,211.000 89.667 C 209.910 89.788,209.778 89.963,209.563 91.579 C 209.432 92.558,209.095 93.435,208.813 93.529 C 207.235 94.055,205.968 95.865,205.609 98.106 C 205.156 100.935,205.031 101.144,203.388 101.831 C 201.912 102.447,201.380 105.537,201.670 111.800 L 201.800 114.600 215.000 114.820 C 229.732 115.066,232.400 115.532,232.400 117.862 C 232.400 118.158,232.566 118.400,232.768 118.400 C 233.213 118.400,233.473 119.662,233.820 123.500 C 234.077 126.354,234.099 126.400,235.212 126.400 C 236.634 126.400,237.498 127.248,237.819 128.958 C 238.066 130.277,238.097 130.293,240.734 130.543 C 247.368 131.169,254.400 130.640,254.400 129.515 C 254.400 127.702,255.600 126.416,257.300 126.406 C 258.380 126.400,258.400 126.355,258.400 123.946 C 258.400 115.666,260.278 114.800,278.231 114.800 L 290.400 114.800 290.400 108.458 L 290.400 102.116 289.100 101.744 C 287.590 101.311,286.907 100.135,286.544 97.341 C 286.266 95.195,285.602 94.187,284.239 93.846 C 283.243 93.596,282.400 92.099,282.400 90.581 C 282.400 89.770,282.203 89.600,281.262 89.600 C 279.893 89.600,278.900 88.600,278.555 86.874 C 278.341 85.806,278.119 85.600,277.179 85.600 C 275.960 85.600,274.400 84.022,274.400 82.789 C 274.400 82.024,273.635 81.600,272.257 81.600 C 271.739 81.600,270.707 80.884,269.734 79.851 C 268.559 78.602,267.460 77.905,265.889 77.410 C 263.944 76.799,263.618 76.538,263.077 75.159 C 262.529 73.766,262.317 73.600,261.081 73.600 C 258.810 73.600,255.600 71.985,255.600 70.843 C 255.600 70.232,254.220 69.600,252.888 69.600 C 251.483 69.600,250.400 68.512,250.400 67.100 C 250.400 66.279,250.156 66.010,249.228 65.806 C 247.421 65.409,246.400 63.032,246.400 59.223 C 246.400 57.934,246.254 57.600,245.689 57.600 C 244.434 57.600,243.326 56.480,242.831 54.709 C 242.494 53.505,241.992 52.781,241.170 52.309 C 240.523 51.937,239.819 51.176,239.606 50.617 C 239.394 50.057,239.035 49.600,238.810 49.600 C 238.584 49.600,238.400 49.434,238.400 49.232 C 238.400 49.029,237.689 48.174,236.820 47.332 C 234.657 45.234,234.272 44.940,233.259 44.619 C 232.775 44.465,232.073 43.858,231.699 43.270 C 230.829 41.902,230.411 41.614,229.286 41.606 C 228.066 41.598,226.400 40.469,226.400 39.650 C 226.400 38.517,224.848 37.951,220.858 37.631 C 216.649 37.292,214.908 36.718,212.863 34.994 L 211.526 33.867 198.263 33.789 C 190.968 33.746,183.404 33.784,181.453 33.872 M124.800 265.884 C 124.470 266.006,123.660 266.645,123.000 267.306 L 121.800 268.507 121.600 309.554 C 121.381 354.472,121.531 351.927,119.049 352.793 C 118.406 353.017,117.379 353.200,116.766 353.200 C 113.818 353.200,113.600 353.544,113.600 358.190 L 113.600 362.400 142.214 362.400 L 170.827 362.400 170.714 358.100 L 170.600 353.800 168.771 353.192 C 166.240 352.352,165.048 351.494,163.945 349.720 L 163.000 348.200 162.783 307.000 C 162.663 284.340,162.528 265.755,162.483 265.700 C 162.311 265.493,125.373 265.673,124.800 265.884 " stroke="none" fill="#000000" fill-rule="evenodd"></path><path id="path1" d="M181.453 33.872 C 178.205 34.019,177.811 34.127,176.783 35.155 C 175.360 36.578,171.796 37.600,168.253 37.600 C 165.724 37.600,165.481 37.681,164.280 38.931 C 162.499 40.783,161.169 41.524,159.356 41.673 C 157.993 41.784,157.753 41.960,157.422 43.084 C 157.126 44.089,156.636 44.544,155.175 45.173 C 153.897 45.722,153.156 46.340,152.831 47.126 C 152.562 47.773,151.797 48.521,151.077 48.838 C 150.190 49.228,149.665 49.827,149.356 50.800 C 149.041 51.794,148.463 52.439,147.363 53.023 C 146.033 53.730,145.771 54.097,145.511 55.622 C 145.344 56.598,145.043 57.452,144.842 57.519 C 142.975 58.142,141.940 60.109,141.575 63.730 C 141.191 67.537,140.912 68.065,138.558 69.444 C 137.818 69.877,137.800 71.922,137.800 156.244 L 137.800 242.600 141.600 242.717 C 143.690 242.782,145.805 242.733,146.300 242.610 L 147.200 242.385 147.200 159.090 C 147.200 106.268,147.342 75.298,147.589 74.437 C 147.983 73.064,149.218 71.600,149.983 71.600 C 150.231 71.600,150.412 70.425,150.430 68.700 C 150.464 65.479,151.105 63.223,152.127 62.727 C 152.497 62.547,153.115 62.247,153.500 62.060 C 153.885 61.872,154.252 61.197,154.316 60.560 C 154.511 58.622,156.213 55.600,157.110 55.600 C 157.677 55.600,159.278 54.097,159.776 53.097 C 160.333 51.980,163.391 50.410,165.020 50.404 C 166.049 50.401,166.318 50.181,166.745 49.000 C 167.506 46.898,168.305 46.662,175.200 46.500 C 178.610 46.420,181.760 46.179,182.200 45.964 C 183.102 45.524,202.525 45.729,213.458 46.294 C 220.720 46.669,222.513 47.277,223.386 49.657 C 223.539 50.074,224.313 50.415,225.513 50.592 C 227.669 50.911,228.634 51.628,229.413 53.492 C 229.764 54.332,230.237 54.800,230.735 54.800 C 231.894 54.800,233.116 56.025,233.497 57.567 C 233.682 58.319,234.184 59.129,234.611 59.367 C 240.439 62.613,238.066 73.194,231.400 73.683 C 229.996 73.786,229.755 73.952,229.433 75.045 C 229.052 76.337,227.640 77.303,225.411 77.797 C 224.757 77.941,223.529 78.810,222.683 79.726 C 221.632 80.865,220.615 81.521,219.472 81.796 C 218.087 82.131,217.779 82.381,217.677 83.258 C 217.522 84.605,216.530 85.496,215.000 85.667 C 213.981 85.780,213.782 85.990,213.678 87.058 C 213.529 88.586,212.603 89.488,211.000 89.667 C 209.910 89.788,209.778 89.963,209.563 91.579 C 209.432 92.558,209.095 93.435,208.813 93.529 C 207.235 94.055,205.968 95.865,205.609 98.106 C 205.156 100.935,205.031 101.144,203.388 101.831 C 201.912 102.447,201.380 105.537,201.670 111.800 L 201.800 114.600 215.000 114.820 C 229.732 115.066,232.400 115.532,232.400 117.862 C 232.400 118.158,232.566 118.400,232.768 118.400 C 233.213 118.400,233.473 119.662,233.820 123.500 C 234.077 126.354,234.099 126.400,235.212 126.400 C 236.634 126.400,237.498 127.248,237.819 128.958 C 238.066 130.277,238.097 130.293,240.734 130.543 C 247.368 131.169,254.400 130.640,254.400 129.515 C 254.400 127.702,255.600 126.416,257.300 126.406 C 258.380 126.400,258.400 126.355,258.400 123.946 C 258.400 115.666,260.278 114.800,278.231 114.800 L 290.400 114.800 290.400 108.458 L 290.400 102.116 289.100 101.744 C 287.590 101.311,286.907 100.135,286.544 97.341 C 286.266 95.195,285.602 94.187,284.239 93.846 C 283.243 93.596,282.400 92.099,282.400 90.581 C 282.400 89.770,282.203 89.600,281.262 89.600 C 279.893 89.600,278.900 88.600,278.555 86.874 C 278.341 85.806,278.119 85.600,277.179 85.600 C 275.960 85.600,274.400 84.022,274.400 82.789 C 274.400 82.024,273.635 81.600,272.257 81.600 C 271.739 81.600,270.707 80.884,269.734 79.851 C 268.559 78.602,267.460 77.905,265.889 77.410 C 263.944 76.799,263.618 76.538,263.077 75.159 C 262.529 73.766,262.317 73.600,261.081 73.600 C 258.810 73.600,255.600 71.985,255.600 70.843 C 255.600 70.232,254.220 69.600,252.888 69.600 C 251.483 69.600,250.400 68.512,250.400 67.100 C 250.400 66.279,250.156 66.010,249.228 65.806 C 247.421 65.409,246.400 63.032,246.400 59.223 C 246.400 57.934,246.254 57.600,245.689 57.600 C 244.434 57.600,243.326 56.480,242.831 54.709 C 242.494 53.505,241.992 52.781,241.170 52.309 C 240.523 51.937,239.819 51.176,239.606 50.617 C 239.394 50.057,239.035 49.600,238.810 49.600 C 238.584 49.600,238.400 49.434,238.400 49.232 C 238.400 49.029,237.689 48.174,236.820 47.332 C 234.657 45.234,234.272 44.940,233.259 44.619 C 232.775 44.465,232.073 43.858,231.699 43.270 C 230.829 41.902,230.411 41.614,229.286 41.606 C 228.066 41.598,226.400 40.469,226.400 39.650 C 226.400 38.517,224.848 37.951,220.858 37.631 C 216.649 37.292,214.908 36.718,212.863 34.994 L 211.526 33.867 198.263 33.789 C 190.968 33.746,183.404 33.784,181.453 33.872 M124.800 265.884 C 124.470 266.006,123.660 266.645,123.000 267.306 L 121.800 268.507 121.600 309.554 C 121.381 354.472,121.531 351.927,119.049 352.793 C 118.406 353.017,117.379 353.200,116.766 353.200 C 113.818 353.200,113.600 353.544,113.600 358.190 L 113.600 362.400 142.214 362.400 L 170.827 362.400 170.714 358.100 L 170.600 353.800 168.771 353.192 C 166.240 352.352,165.048 351.494,163.945 349.720 L 163.000 348.200 162.783 307.000 C 162.663 284.340,162.528 265.755,162.483 265.700 C 162.311 265.493,125.373 265.673,124.800 265.884 " stroke="none" fill="#000000" fill-rule="evenodd"></path><path id="path2" d="M181.453 33.872 C 178.205 34.019,177.811 34.127,176.783 35.155 C 175.360 36.578,171.796 37.600,168.253 37.600 C 165.724 37.600,165.481 37.681,164.280 38.931 C 162.499 40.783,161.169 41.524,159.356 41.673 C 157.993 41.784,157.753 41.960,157.422 43.084 C 157.126 44.089,156.636 44.544,155.175 45.173 C 153.897 45.722,153.156 46.340,152.831 47.126 C 152.562 47.773,151.797 48.521,151.077 48.838 C 150.190 49.228,149.665 49.827,149.356 50.800 C 149.041 51.794,148.463 52.439,147.363 53.023 C 146.033 53.730,145.771 54.097,145.511 55.622 C 145.344 56.598,145.043 57.452,144.842 57.519 C 142.975 58.142,141.940 60.109,141.575 63.730 C 141.191 67.537,140.912 68.065,138.558 69.444 C 137.818 69.877,137.800 71.922,137.800 156.244 L 137.800 242.600 141.600 242.717 C 143.690 242.782,145.805 242.733,146.300 242.610 L 147.200 242.385 147.200 159.090 C 147.200 106.268,147.342 75.298,147.589 74.437 C 147.983 73.064,149.218 71.600,149.983 71.600 C 150.231 71.600,150.412 70.425,150.430 68.700 C 150.464 65.479,151.105 63.223,152.127 62.727 C 152.497 62.547,153.115 62.247,153.500 62.060 C 153.885 61.872,154.252 61.197,154.316 60.560 C 154.511 58.622,156.213 55.600,157.110 55.600 C 157.677 55.600,159.278 54.097,159.776 53.097 C 160.333 51.980,163.391 50.410,165.020 50.404 C 166.049 50.401,166.318 50.181,166.745 49.000 C 167.506 46.898,168.305 46.662,175.200 46.500 C 178.610 46.420,181.760 46.179,182.200 45.964 C 183.102 45.524,202.525 45.729,213.458 46.294 C 220.720 46.669,222.513 47.277,223.386 49.657 C 223.539 50.074,224.313 50.415,225.513 50.592 C 227.669 50.911,228.634 51.628,229.413 53.492 C 229.764 54.332,230.237 54.800,230.735 54.800 C 231.894 54.800,233.116 56.025,233.497 57.567 C 233.682 58.319,234.184 59.129,234.611 59.367 C 240.439 62.613,238.066 73.194,231.400 73.683 C 229.996 73.786,229.755 73.952,229.433 75.045 C 229.052 76.337,227.640 77.303,225.411 77.797 C 224.757 77.941,223.529 78.810,222.683 79.726 C 221.632 80.865,220.615 81.521,219.472 81.796 C 218.087 82.131,217.779 82.381,217.677 83.258 C 217.522 84.605,216.530 85.496,215.000 85.667 C 213.981 85.780,213.782 85.990,213.678 87.058 C 213.529 88.586,212.603 89.488,211.000 89.667 C 209.910 89.788,209.778 89.963,209.563 91.579 C 209.432 92.558,209.095 93.435,208.813 93.529 C 207.235 94.055,205.968 95.865,205.609 98.106 C 205.156 100.935,205.031 101.144,203.388 101.831 C 201.912 102.447,201.380 105.537,201.670 111.800 L 201.800 114.600 215.000 114.820 C 229.732 115.066,232.400 115.532,232.400 117.862 C 232.400 118.158,232.566 118.400,232.768 118.400 C 233.213 118.400,233.473 119.662,233.820 123.500 C 234.077 126.354,234.099 126.400,235.212 126.400 C 236.634 126.400,237.498 127.248,237.819 128.958 C 238.066 130.277,238.097 130.293,240.734 130.543 C 247.368 131.169,254.400 130.640,254.400 129.515 C 254.400 127.702,255.600 126.416,257.300 126.406 C 258.380 126.400,258.400 126.355,258.400 123.946 C 258.400 115.666,260.278 114.800,278.231 114.800 L 290.400 114.800 290.400 108.458 L 290.400 102.116 289.100 101.744 C 287.590 101.311,286.907 100.135,286.544 97.341 C 286.266 95.195,285.602 94.187,284.239 93.846 C 283.243 93.596,282.400 92.099,282.400 90.581 C 282.400 89.770,282.203 89.600,281.262 89.600 C 279.893 89.600,278.900 88.600,278.555 86.874 C 278.341 85.806,278.119 85.600,277.179 85.600 C 275.960 85.600,274.400 84.022,274.400 82.789 C 274.400 82.024,273.635 81.600,272.257 81.600 C 271.739 81.600,270.707 80.884,269.734 79.851 C 268.559 78.602,267.460 77.905,265.889 77.410 C 263.944 76.799,263.618 76.538,263.077 75.159 C 262.529 73.766,262.317 73.600,261.081 73.600 C 258.810 73.600,255.600 71.985,255.600 70.843 C 255.600 70.232,254.220 69.600,252.888 69.600 C 251.483 69.600,250.400 68.512,250.400 67.100 C 250.400 66.279,250.156 66.010,249.228 65.806 C 247.421 65.409,246.400 63.032,246.400 59.223 C 246.400 57.934,246.254 57.600,245.689 57.600 C 244.434 57.600,243.326 56.480,242.831 54.709 C 242.494 53.505,241.992 52.781,241.170 52.309 C 240.523 51.937,239.819 51.176,239.606 50.617 C 239.394 50.057,239.035 49.600,238.810 49.600 C 238.584 49.600,238.400 49.434,238.400 49.232 C 238.400 49.029,237.689 48.174,236.820 47.332 C 234.657 45.234,234.272 44.940,233.259 44.619 C 232.775 44.465,232.073 43.858,231.699 43.270 C 230.829 41.902,230.411 41.614,229.286 41.606 C 228.066 41.598,226.400 40.469,226.400 39.650 C 226.400 38.517,224.848 37.951,220.858 37.631 C 216.649 37.292,214.908 36.718,212.863 34.994 L 211.526 33.867 198.263 33.789 C 190.968 33.746,183.404 33.784,181.453 33.872 M124.800 265.884 C 124.470 266.006,123.660 266.645,123.000 267.306 L 121.800 268.507 121.600 309.554 C 121.381 354.472,121.531 351.927,119.049 352.793 C 118.406 353.017,117.379 353.200,116.766 353.200 C 113.818 353.200,113.600 353.544,113.600 358.190 L 113.600 362.400 142.214 362.400 L 170.827 362.400 170.714 358.100 L 170.600 353.800 168.771 353.192 C 166.240 352.352,165.048 351.494,163.945 349.720 L 163.000 348.200 162.783 307.000 C 162.663 284.340,162.528 265.755,162.483 265.700 C 162.311 265.493,125.373 265.673,124.800 265.884 " stroke="none" fill="#000000" fill-rule="evenodd"></path><path id="path3" d="" stroke="none" fill="#080404" fill-rule="evenodd"></path><path id="path4" d="M181.453 33.872 C 178.205 34.019,177.811 34.127,176.783 35.155 C 175.360 36.578,171.796 37.600,168.253 37.600 C 165.724 37.600,165.481 37.681,164.280 38.931 C 162.499 40.783,161.169 41.524,159.356 41.673 C 157.993 41.784,157.753 41.960,157.422 43.084 C 157.126 44.089,156.636 44.544,155.175 45.173 C 153.897 45.722,153.156 46.340,152.831 47.126 C 152.562 47.773,151.797 48.521,151.077 48.838 C 150.190 49.228,149.665 49.827,149.356 50.800 C 149.041 51.794,148.463 52.439,147.363 53.023 C 146.033 53.730,145.771 54.097,145.511 55.622 C 145.344 56.598,145.043 57.452,144.842 57.519 C 142.975 58.142,141.940 60.109,141.575 63.730 C 141.191 67.537,140.912 68.065,138.558 69.444 C 137.818 69.877,137.800 71.922,137.800 156.244 L 137.800 242.600 141.600 242.717 C 143.690 242.782,145.805 242.733,146.300 242.610 L 147.200 242.385 147.200 159.090 C 147.200 106.268,147.342 75.298,147.589 74.437 C 147.983 73.064,149.218 71.600,149.983 71.600 C 150.231 71.600,150.412 70.425,150.430 68.700 C 150.464 65.479,151.105 63.223,152.127 62.727 C 152.497 62.547,153.115 62.247,153.500 62.060 C 153.885 61.872,154.252 61.197,154.316 60.560 C 154.511 58.622,156.213 55.600,157.110 55.600 C 157.677 55.600,159.278 54.097,159.776 53.097 C 160.333 51.980,163.391 50.410,165.020 50.404 C 166.049 50.401,166.318 50.181,166.745 49.000 C 167.506 46.898,168.305 46.662,175.200 46.500 C 178.610 46.420,181.760 46.179,182.200 45.964 C 183.102 45.524,202.525 45.729,213.458 46.294 C 220.720 46.669,222.513 47.277,223.386 49.657 C 223.539 50.074,224.313 50.415,225.513 50.592 C 227.669 50.911,228.634 51.628,229.413 53.492 C 229.764 54.332,230.237 54.800,230.735 54.800 C 231.894 54.800,233.116 56.025,233.497 57.567 C 233.682 58.319,234.184 59.129,234.611 59.367 C 240.439 62.613,238.066 73.194,231.400 73.683 C 229.996 73.786,229.755 73.952,229.433 75.045 C 229.052 76.337,227.640 77.303,225.411 77.797 C 224.757 77.941,223.529 78.810,222.683 79.726 C 221.632 80.865,220.615 81.521,219.472 81.796 C 218.087 82.131,217.779 82.381,217.677 83.258 C 217.522 84.605,216.530 85.496,215.000 85.667 C 213.981 85.780,213.782 85.990,213.678 87.058 C 213.529 88.586,212.603 89.488,211.000 89.667 C 209.910 89.788,209.778 89.963,209.563 91.579 C 209.432 92.558,209.095 93.435,208.813 93.529 C 207.235 94.055,205.968 95.865,205.609 98.106 C 205.156 100.935,205.031 101.144,203.388 101.831 C 201.912 102.447,201.380 105.537,201.670 111.800 L 201.800 114.600 215.000 114.820 C 229.732 115.066,232.400 115.532,232.400 117.862 C 232.400 118.158,232.566 118.400,232.768 118.400 C 233.213 118.400,233.473 119.662,233.820 123.500 C 234.077 126.354,234.099 126.400,235.212 126.400 C 236.634 126.400,237.498 127.248,237.819 128.958 C 238.066 130.277,238.097 130.293,240.734 130.543 C 247.368 131.169,254.400 130.640,254.400 129.515 C 254.400 127.702,255.600 126.416,257.300 126.406 C 258.380 126.400,258.400 126.355,258.400 123.946 C 258.400 115.666,260.278 114.800,278.231 114.800 L 290.400 114.800 290.400 108.458 L 290.400 102.116 289.100 101.744 C 287.590 101.311,286.907 100.135,286.544 97.341 C 286.266 95.195,285.602 94.187,284.239 93.846 C 283.243 93.596,282.400 92.099,282.400 90.581 C 282.400 89.770,282.203 89.600,281.262 89.600 C 279.893 89.600,278.900 88.600,278.555 86.874 C 278.341 85.806,278.119 85.600,277.179 85.600 C 275.960 85.600,274.400 84.022,274.400 82.789 C 274.400 82.024,273.635 81.600,272.257 81.600 C 271.739 81.600,270.707 80.884,269.734 79.851 C 268.559 78.602,267.460 77.905,265.889 77.410 C 263.944 76.799,263.618 76.538,263.077 75.159 C 262.529 73.766,262.317 73.600,261.081 73.600 C 258.810 73.600,255.600 71.985,255.600 70.843 C 255.600 70.232,254.220 69.600,252.888 69.600 C 251.483 69.600,250.400 68.512,250.400 67.100 C 250.400 66.279,250.156 66.010,249.228 65.806 C 247.421 65.409,246.400 63.032,246.400 59.223 C 246.400 57.934,246.254 57.600,245.689 57.600 C 244.434 57.600,243.326 56.480,242.831 54.709 C 242.494 53.505,241.992 52.781,241.170 52.309 C 240.523 51.937,239.819 51.176,239.606 50.617 C 239.394 50.057,239.035 49.600,238.810 49.600 C 238.584 49.600,238.400 49.434,238.400 49.232 C 238.400 49.029,237.689 48.174,236.820 47.332 C 234.657 45.234,234.272 44.940,233.259 44.619 C 232.775 44.465,232.073 43.858,231.699 43.270 C 230.829 41.902,230.411 41.614,229.286 41.606 C 228.066 41.598,226.400 40.469,226.400 39.650 C 226.400 38.517,224.848 37.951,220.858 37.631 C 216.649 37.292,214.908 36.718,212.863 34.994 L 211.526 33.867 198.263 33.789 C 190.968 33.746,183.404 33.784,181.453 33.872 M124.800 265.884 C 124.470 266.006,123.660 266.645,123.000 267.306 L 121.800 268.507 121.600 309.554 C 121.381 354.472,121.531 351.927,119.049 352.793 C 118.406 353.017,117.379 353.200,116.766 353.200 C 113.818 353.200,113.600 353.544,113.600 358.190 L 113.600 362.400 142.214 362.400 L 170.827 362.400 170.714 358.100 L 170.600 353.800 168.771 353.192 C 166.240 352.352,165.048 351.494,163.945 349.720 L 163.000 348.200 162.783 307.000 C 162.663 284.340,162.528 265.755,162.483 265.700 C 162.311 265.493,125.373 265.673,124.800 265.884 " stroke="none" fill="#000000" fill-rule="evenodd"></path></g></svg>